<svg width="15" height="9" viewBox="0 0 15 9" fill="none" xmlns="http://www.w3.org/2000/svg">
<path d="M7.49683 3.05497L13.1085 8.66644C13.2627 8.82095 13.4688 8.90595 13.6885 8.90595C13.9084 8.90595 14.1144 8.82095 14.2688 8.66644L14.7602 8.17473C14.9149 8.02046 15 7.81424 15 7.59448C15 7.37473 14.9149 7.16875 14.7602 7.01436L8.07902 0.333022C7.92415 0.178022 7.7172 0.0931435 7.49719 0.0937533C7.27622 0.0931435 7.06951 0.1779 6.91451 0.333022L0.239755 7.00814C0.0851208 7.16253 -1.27166e-06 7.36851 -1.28128e-06 7.58839C-1.29088e-06 7.80814 0.0851208 8.01412 0.239755 8.16863L0.731219 8.66022C1.0511 8.98009 1.57183 8.98009 1.89158 8.66022L7.49683 3.05497Z" fill="#F2F2F2" fill-opacity="0.5"/>
</svg>
