<svg width="15" height="9" viewBox="0 0 15 9" fill="none" xmlns="http://www.w3.org/2000/svg">
<path d="M7.50317 5.94503L1.89146 0.333565C1.73732 0.179052 1.53122 0.0940532 1.31146 0.0940532C1.09159 0.0940532 0.88561 0.179052 0.73122 0.333565L0.239756 0.825272C0.0851221 0.97954 9.20659e-08 1.18576 8.94454e-08 1.40552C8.68248e-08 1.62527 0.085122 1.83125 0.239756 1.98564L6.92098 8.66698C7.07585 8.82198 7.2828 8.90686 7.50281 8.90625C7.72378 8.90686 7.93049 8.8221 8.08549 8.66698L14.7602 1.99186C14.9149 1.83747 15 1.63149 15 1.41161C15 1.19186 14.9149 0.985881 14.7602 0.831369L14.2688 0.339784C13.9489 0.0199056 13.4282 0.0199056 13.1084 0.339784L7.50317 5.94503Z" fill="#F2F2F2" fill-opacity="0.5"/>
</svg>
